<svg width="176" height="153" viewBox="0 0 176 153" fill="none" xmlns="http://www.w3.org/2000/svg">
<path id="Style 7 Copy" d="M148.41 151.348C156.309 143.266 162.675 133.615 167.022 122.891C171.215 112.546 173.529 101.202 173.529 89.3062C173.529 77.4099 171.215 66.0666 167.022 55.7218C162.675 44.9976 156.309 35.3465 148.41 27.2646C140.51 19.1828 131.076 12.6702 120.593 8.22331C110.481 3.9337 99.3931 1.56616 87.7647 1.56616C76.1363 1.56616 65.0484 3.9337 54.9364 8.22331C44.4537 12.6702 35.0198 19.1828 27.1199 27.2646C19.22 35.3465 12.8541 44.9976 8.50728 55.7218C4.31424 66.0666 2 77.4099 2 89.3062C2 101.202 4.31424 112.546 8.50728 122.891C12.8541 133.615 19.22 143.266 27.1199 151.348" stroke="url(#paint0_linear_16_2882)" stroke-width="3" stroke-dasharray="2 10"/>
<defs>
<linearGradient id="paint0_linear_16_2882" x1="87.7647" y1="1.56616" x2="87.7647" y2="151.348" gradientUnits="userSpaceOnUse">
<stop stop-color="#1EFFD7"/>
<stop offset="1" stop-color="#008080"/>
</linearGradient>
</defs>
</svg>
